/* XPM */
static char *result[] = {
/* columns rows colors chars-per-pixel */
"50 50 137 2 ",
"   c #BC720F",
".  c #BC7512",
"X  c #BE7C1A",
"o  c #CE7B08",
"O  c #D27F07",
"+  c #D17E08",
"@  c #C17912",
"#  c #C07F19",
"$  c #D58107",
"%  c #D58309",
"&  c #D8870B",
"*  c #D6880F",
"=  c #DA8B0E",
"-  c #C68216",
";  c #CA8314",
":  c #CE8915",
">  c #C5831B",
",  c #C98519",
"<  c #CC8A1C",
"1  c #D28711",
"2  c #D58B13",
"3  c #DA8E11",
"4  c #D48F1A",
"5  c #D79016",
"6  c #DC9314",
"7  c #DE9816",
"8  c #D6941C",
"9  c #D9951A",
"0  c #DC9A1D",
"q  c #E09714",
"w  c #E29B16",
"e  c #E29E19",
"r  c #E5A31D",
"t  c #E7A91F",
"y  c #E8A81F",
"u  c #C38521",
"i  c #C68A24",
"p  c #CB8E22",
"a  c #C38828",
"s  c #CD9324",
"d  c #C7912E",
"f  c #CB932A",
"g  c #D39623",
"h  c #D89521",
"j  c #D49A25",
"k  c #DB9C23",
"l  c #D39728",
"z  c #D39B29",
"x  c #D89E29",
"c  c #CB9635",
"v  c #CE9B35",
"b  c #DEA125",
"n  c #D6A32D",
"m  c #DCA42C",
"M  c #DDAA2D",
"N  c #DFB12F",
"B  c #D6A433",
"V  c #D8A531",
"C  c #DCAC32",
"Z  c #DAA538",
"A  c #D9AC3F",
"S  c #DEB234",
"D  c #DFB338",
"F  c #E3A523",
"G  c #E6AA24",
"H  c #E9AD23",
"J  c #E0A62B",
"K  c #E3AC2C",
"L  c #ECB326",
"P  c #E6B22E",
"I  c #EAB42B",
"U  c #EFB92A",
"Y  c #F1BD2C",
"T  c #E1AD31",
"R  c #E4B332",
"E  c #E8B631",
"W  c #E5B935",
"Q  c #EABB34",
"!  c #E5BB3A",
"~  c #EABE38",
"^  c #F0BF35",
"/  c #F2C12F",
"(  c #EEC336",
")  c #E7C13B",
"_  c #ECC53A",
"`  c #EECE3C",
"'  c #F3C533",
"]  c #F5CA36",
"[  c #F4C638",
"{  c #F3CD3B",
"}  c #F8CE38",
"|  c #F7D037",
" . c #F8D437",
".. c #F5D33C",
"X. c #F9D43B",
"o. c #F7DC3F",
"O. c #FADA3D",
"+. c #FBE33D",
"@. c #FCEC3E",
"#. c #FDF03F",
"$. c #E6C343",
"%. c #E9C743",
"&. c #ECCB45",
"*. c #EACB49",
"=. c #F1CF42",
"-. c #EFD243",
";. c #EED14A",
":. c #F2D443",
">. c #F8D741",
",. c #F5DC43",
"<. c #F9DC41",
"1. c #F2D54B",
"2. c #F5DA4C",
"3. c #F8DE4D",
"4. c #F6DD52",
"5. c #F8DF53",
"6. c #F7E144",
"7. c #FBE343",
"8. c #FCEA44",
"9. c #FBE44B",
"0. c #FDEC4C",
"q. c #FDF244",
"w. c #FEF24A",
"e. c #F7E157",
"r. c #F9E355",
"t. c #FDED53",
"y. c #FAE559",
"u. c #FCEB59",
"i. c #FDF253",
"p. c #FDF35B",
"a. c #FCF465",
"s. c #FCF46D",
"d. c #FCF476",
"f. c #FCF47B",
"g. c #FCF581",
"h. c #FCF589",
"j. c None",
/* pixels */
"j.j.j.j.j.j.j.j.j.j.j.j.j.j.j.j.j.j.j.j.j.j.j.j.j.j.j.j.j.j.j.j.j.j.j.j.j.j.j.j.j.j.j.j.j.j.j.j.j.j.",
"j.j.j.j.j.j.j.j.j.j.j.j.j.j.j.j.j.j.j.j.j.j.j.j.j.j.j.j.j.j.j.j.j.j.j.j.j.j.j.j.j.j.j.j.j.j.j.j.j.j.",
"j.j.j.j.j.j.j.j.j.j.j.j.j.j.j.j.j.j.j.j.j.j.j.j.j.j.j.j.j.j.j.j.j.j.j.j.j.j.j.j.j.j.j.j.j.j.j.j.j.j.",
"j.j.j.j.j.j.j.j.j.j.j.j.j.j.j.j.j.j.j.g.s.s.s.p.w.w.w.i.a.s.s.d.h.j.j.j.j.j.j.j.j.j.j.j.j.j.j.j.j.j.",
"j.j.j.j.j.j.j.j.j.j.j.j.j.j.j.j.f.d.p.p.w.w.w.w.i.q.q.q.q.w.w.i.p.a.f.j.j.j.j.j.j.j.j.j.j.j.j.j.j.j.",
"j.j.j.j.j.j.j.j.j.j.j.j.j.j.j.s.p.w.w.w.w.w.w.w.w.q.q.q.w.w.q.q.w.q.w.a.d.j.j.j.j.j.j.j.j.j.j.j.j.j.",
"j.j.j.j.j.j.j.j.j.j.j.j.j.s.i.w.w.w.w.8.8.-._ W C n n S ) ` 6.8.w.w.w.w.w.s.a.j.j.j.j.j.j.j.j.j.j.j.",
"j.j.j.j.j.j.j.j.j.j.j.s.p.w.w.w.0.,._ S C ! $.&.;.-.-.-._ D S N W -.q.w.w.q.i.p.j.j.j.j.j.j.j.j.j.j.",
"j.j.j.j.j.j.j.j.j.j.a.i.w.0.8.8._ n C &.r.t.t.i.i.i.t.t.w.t.0.-.R n D ,.q.q.q.q.i.j.j.j.j.j.j.j.j.j.",
"j.j.j.j.j.j.j.j.j.i.w.w.8.7.-.n D r.u.t.i.t.t.t.t.i.w.w.t.w.w.0.0.0._ n W 6.q.#.q.i.j.j.j.j.j.j.j.j.",
"j.j.j.j.j.j.j.j.i.0.0.8.7.W Z ;.y.u.u.u.u.i.t.t.0.9.9.0.0.t.0.w.0.i.0.,.W n ..#.q.q.w.j.j.j.j.j.j.j.",
"j.j.j.j.j.j.j.w.0.8.8.7.R C 4.u.u.u.t.y.t.t.r.r.2.e.6.r.0.9.0.0.0.0.0.0.8.) z ` #.#.q.w.j.j.j.j.j.j.",
"j.j.j.j.j.j.j.0.8.7.,.C C e.y.u.t.u.y.r.r.r.0.2.&.i.2.1.r.9.9.9.9.9.0.0.8.8._ j ..@.@.#.8.j.j.j.j.j.",
"j.j.j.j.j.j.8.7.+.o.R C 5.y.y.u.y.y.y.y.r.r.r.&.9.w.0.&.2.9.9.9.9.9.9.9.7.8.6._ j ` @.+.@.@.j.j.j.j.",
"j.j.j.j.j.8.8.+.+._ V 2.e.y.y.e.r.r.r.y.r.r.2.%.w.i.w.2.&.9.r.9.9.9.6.9.7.7.7.+.N m  .+.+.@.j.j.j.j.",
"j.j.j.j.j.8.O.O...z &.r.y.y.e.e.r.r.r.r.r.r.&.,.w.t.i.t.$.2.r.r.9.9.9.7.7.7.,.+.+.j N O.O.+.8.j.j.j.",
"j.j.j.j.+.+.O.O.R C 4.r.5.5.5.5.5.e.r.r.5.1.%.8.0.t.i.0.,.&.4.3.9.9.3.<.<.<.<.<.O._ x ] O.O.O.j.j.j.",
"j.j.j.j.7.O. ._ z 1.2.4.4.4.4.5.5.e.5.5.4.%.>.9.0.0.0.0.0.%.2.3.3.r.3.<.<.<.>.>.>.>.M P  . . .j.j.j.",
"j.j.j.<.O. . .K C 2.2.2.1.4.4.2.4.4.4.4.1.$.<.8.9.0.9.9.9.:.%.1.1.1.2.>.>.X.>.>.<..._ s ] X. . .j.j.",
"j.j.j.O. .] ] M ) :.,.1.;.;.*.1.;.1.*.*.$.7.<.9.9.9.8.9.8.9.*.$.=.;.:.=.:.=.{ } ....] s E ] ]  .j.j.",
"j.j.j. .] ] ( n =.:.:.:.%.*.;.1.1.1.3.5.<.>.>.<.7.7.7.<.<.7.9.r.5.1.1.:.;.=._ _ { } { M m ' ] | j.j.",
"j.j.j. .] ] I M { :.=.$...>.>.X.X.>.O.>.O.O.O.>.<.>.>.>.>.<.<.O.O.O.X.X.X.>.<.( _ } ] ( s / / ] ] j.",
"j.j.j.X.' ] M R [ =.[ ! [ X.X.X.>.X.X.X.X.X.X.O.>.X.X.O.>.X.O.O.O.X.X.X.X.X.] E ( ] ' ( g I / / [ j.",
"j.j.j.[ / ' m E _ { _ ~ V ( { X.X.X.} } } X.X.X.X.} X.} X.X.X.X.X.} X.} ] ' m T Q [ [ ( j K / U / j.",
"j.j.[ ' Y ^ n P [ _ _ _ ! n E ] ] ] ] ] ] ] ] ] } } } } } } } } [ ] [ ' Y k T Q ( ( ( ( j b U U / j.",
"j.j.[ Y U U n P Q ' [ ( ( ! m E ' ' ' ' ' ' ] ] ' ' ] ] ' ' ' ' ' ' / Y m T ~ Q Q ( U Q j F U L Y j.",
"j.j.^ Y U U j P Q ' Q Q Q ( ! m L / Y Y / ' ' / Y ' ' ' ' ' ' Y Y Y U z C ! Q ! I Q Q E j b L L U j.",
"j.j.Y U L I M K E ^ Q Q Q Q ~ ! m G Y Y Y Y Y U Y Y Y Y Y Y Y Y U L g T Q Q Q E W U U P n b H L L j.",
"j.j.j.Y L L M M E I E E W Q Q ~ R g I L Y Y U U Y Y Y Y Y Y U L L k V Q ! E E R R I E E g b L L L j.",
"j.j.j.L L L M b I E I I R E Q Q R z H L L L L L L L L I L L L L L k T Q E R R E R P P R l G t t L j.",
"j.j.j.L H L J j K H I H I I P E T j y L H L H H H H L H H H H H F 0 T W R R T T K I K n g F r H H j.",
"j.j.j.L H H L j G H K K H K P I J 8 y H H y H H H H H H H y F r r k x T R T T T K K K p b r r H j.j.",
"j.j.j.H H y H n 0 F H G G G K K k 8 r r y r r r y r r y r r r r e 0 j T T T T T T J J i G e e F j.j.",
"j.j.j.G y y y M s F F F G G G G h 8 r r r r r r r r r r e r e e e 9 g C T J J J K J z x w w r F j.j.",
"j.j.j.j.y y r H n k r r r F F F g 8 e e 7 w r w : X - 0 q w w q q 7 < m T V J K J J f b w w e j.j.j.",
"j.j.j.j.r y r r K > 0 r e r e 0 4 q e w 6 6 : , j n x > ; 5 7 6 6 7 - x J V J J J f l w q w e j.j.j.",
"j.j.j.j.j.r r e F B 8 e e e e 9 4 q q 5 1 , < k F m m x p - ; 2 6 6 ; k m V J V x f h q q w w j.j.j.",
"j.j.j.j.j.r r e r G s 9 0 q 7 7 < 9 2 . , h b F b F m k x j p X @ * # j m J m x u m q 3 q q j.j.j.j.",
"j.j.j.j.j.j.e r w e m s 6 6 6 6 4 + # 2 h 0 k k k k 0 k h k j g < > s x x x x p V 6 3 q q j.j.j.j.j.",
"j.j.j.j.j.j.j.e e r e m < 2 6 6 q q 3 9 9 w w h 0 0 9 9 9 h h h h h j k x x p l 9 = = q q j.j.j.j.j.",
"j.j.j.j.j.j.j.e w w q 3 F i 1 6 6 6 3 6 6 6 6 h 9 9 9 9 8 8 8 9 0 h h g g # V 6 = = = 6 j.j.j.j.j.j.",
"j.j.j.j.j.j.j.j.q w 6 q 3 J v # 3 = 3 6 6 6 6 4 9 3 4 4 5 9 9 9 8 8 h < a B 3 & = = 6 j.j.j.j.j.j.j.",
"j.j.j.j.j.j.j.j.j.q 6 3 3 q e n p # * 5 3 3 5 6 3 3 2 3 3 4 4 4 4 < i l k 3 & & = 3 j.j.j.j.j.j.j.j.",
"j.j.j.j.j.j.j.j.j.j.3 3 q 6 3 3 k A a @ 1 4 2 3 1 1 1 2 2 2 : ; X c l 3 % + & = = j.j.j.j.j.j.j.j.j.",
"j.j.j.j.j.j.j.j.j.j.j.j.3 q & & = q b J v c f # @   . @ u d f f k * % O $ % = * j.j.j.j.j.j.j.j.j.j.",
"j.j.j.j.j.j.j.j.j.j.j.j.j.3 = & = 3 = 3 w h h l l c z l s 4 8 * + % % % & * j.j.j.j.j.j.j.j.j.j.j.j.",
"j.j.j.j.j.j.j.j.j.j.j.j.j.j.& 3 6 = 3 & * O O % + + O % $ % + % % % % & & j.j.j.j.j.j.j.j.j.j.j.j.j.",
"j.j.j.j.j.j.j.j.j.j.j.j.j.j.j.j.j.3 3 3 = O + + + + + + + % $ $ $ % j.j.j.j.j.j.j.j.j.j.j.j.j.j.j.j.",
"j.j.j.j.j.j.j.j.j.j.j.j.j.j.j.j.j.j.j.j.* % % % % O $ % % % % % j.j.j.j.j.j.j.j.j.j.j.j.j.j.j.j.j.j.",
"j.j.j.j.j.j.j.j.j.j.j.j.j.j.j.j.j.j.j.j.j.j.j.j.j.j.j.j.j.j.j.j.j.j.j.j.j.j.j.j.j.j.j.j.j.j.j.j.j.j."
};
