/* XPM */
static char *result[] = {
/* columns rows colors chars-per-pixel */
"50 50 83 1 ",
"  c #76642F",
". c #7A6633",
"X c #7E6B35",
"o c #7A6838",
"O c #836E36",
"+ c #85723B",
"@ c #8B7538",
"# c #8D7A3D",
"$ c #927D3B",
"% c #877544",
"& c #887645",
"* c #8A7845",
"= c #8E7C4D",
"- c #96813B",
"; c #9B853B",
": c #9E893B",
"> c #A28D3D",
", c #A6913C",
"< c #A9943E",
"1 c #9A8541",
"2 c #9E8941",
"3 c #9B8749",
"4 c #9E8A48",
"5 c #A28D42",
"6 c #A38E49",
"7 c #A69043",
"8 c #AB9646",
"9 c #AF9A47",
"0 c #A4914B",
"q c #AA954A",
"w c #AE994B",
"e c #B29C4C",
"r c #A69553",
"t c #A99553",
"y c #AE9954",
"u c #AE9B59",
"i c #B29D54",
"p c #B29D5A",
"a c #B5A04E",
"s c #B5A154",
"d c #B9A457",
"f c #B6A15B",
"g c #BAA65B",
"h c #BEA95C",
"j c #A99F73",
"k c #B7A361",
"l c #BAA662",
"z c #BEA963",
"x c #BDAA6C",
"c c #ABA27A",
"v c #C1AD5D",
"b c #C4B15F",
"n c #C2AD64",
"m c #C2AE6A",
"M c #C5B266",
"N c #C9B666",
"B c #CBB867",
"V c #C6B26B",
"C c #CAB66C",
"Z c #CDB96E",
"A c #C5B473",
"S c #CBB671",
"D c #CEBA72",
"F c #CAB679",
"G c #D2BD73",
"H c #D1BE78",
"J c #D4C176",
"K c #D6C279",
"L c #D9C57B",
"P c #DBC87D",
"I c #A7A287",
"U c #ABA585",
"Y c #A4A18C",
"T c #AAA589",
"R c #B3AA83",
"E c #A7A696",
"W c #A9A691",
"Q c #CFBC80",
"! c #D0BD81",
"~ c #D7C580",
"^ c #D8C680",
"/ c #DBC981",
"( c None",
/* pixels */
"((((((((((((((((((((((((((((((((((((((((((((((((((",
"((((((((((((((((((((((((((((((((((((((((((((((((((",
"((((((((((((((((((((((((((((((((((((((((((((((((((",
"((((((((((((((((((((((((((((((((((((((((((((((((((",
"((((((((((((((((((((((((((((((((((((((((((((((((((",
"((((((((((((((((((((((((((((((((((((((((((((((((((",
"((((((((((((((((((((((((((((((((((((((((((((((((((",
"((((((((((((((((((((((((((((((((((((((((((((((((((",
"((((((((((((((((((((7>$>:>;;;:5(((((((((((((((((((",
"((((((((((((((((((<$>svngw>>>;;;:(((((((((((((((((",
"((((((((((((((((8,dCpSDDHCzn616>;;((((((((((((((((",
"(((((((((((((((>8ZGDiSDDSClSCl-46:;(((((((((((((((",
"((((((((((((((>8CKGSgZGZZSlSGHC>2(:;((((((((((((((",
"(((((((((((((q,mSKGSgSGSGZgnDHD012(:0(((((((((((((",
"(((((((((((((,hVGKGGdSGGGDlMGHSpp:t(::((((((((((((",
"((((((((((((,aVmLKGGvSGGGZlCGGSiVqy(:;((((((((((((",
"((((((((((((,ZCzGKKDvZGZZZvnDGDpDmwe(:5(((((((((((",
"(((((((((((<8JNzLLGGvZLZZGpNGGGnHCqq(>:(((((((((((",
"(((((((((((,gJCMKPLGvBJBGGvNGHHnSCee(5:(((((((((((",
"(((((((((((,NDZzKLGGbBLGZGiBKHHnCCv9i(::((((((((((",
"((((((((((8<DDCMGKJGvGJGGGvZG/HvCCnqe(>>((((((((((",
"((((((((((ccRSBMKLLGbZGGGGdNHLDvDnBqa(>:((((((((((",
"((((((((((UTYSCMLLJGbZGGZGvNGKGvDCZea(>:((((((((((",
"((((((((((qzSCZMLGJGBZGJGGdNGGHvCBGia((:((((((((((",
"((((((((((<MCDZzJJJJBZBJBJdBDJLhCCGde((:((((((((((",
"((((((((((<BZZZgJJJJBBJJBJgBGJLvDSGhes(:5(((((((((",
"((((((((((<ZCCZfJJJJBZJJJBvBJJKvVlCMes(:2(((((((((",
"((((((((((,JDMZsJJJJBBJJGJdBJJJh$ pZee(>:(((((((((",
"((((((((((<ZCCByJJJJZCJJJJgZJJJh+XtZeq(:;(((((((((",
"((((((((((<JCCJyJJJLSCJDJJgCGJGh#*rCqq(:;(((((((((",
"((((((((((,JCZZuDJJ/NMJZJJgMGJJhpOkS75(:;(((((((((",
"((((((((((rFxZJuJJKLbMJBJZdBJJJgCVDD:-(:;(((((((((",
"((((((((((EYYZHfLGHHnnGZGGiNKGGhVVCS@$(;$(((((((((",
"((((((((((IIUCGgHSGLnvGDGDiZKSDhVVCS@@(>>(((((((((",
"((((((((((,MCCKkGSDLbnGDGSiZGZGlCmmV@O($1(((((((((",
"((((((((((:zCmGfGZGHnvGSGSeZGSSlVVmCO@(>=(((((((((",
"((((((((((>gAFCpSSGHngGCGZyCGSGpmmlm%%($$(((((((((",
"((((((((((5lF!CpSDGLnpHCGCwCDCGpnmlm*%($;(((((((((",
"((((((((((5p!FStCDGGnpHVDSimHDGplxzm%&=$$(((((((((",
"(((((((((((0SCSySDHSluCCDSynGDSpzmllOO$$*(((((((((",
"(((((((((((((((pHFDSnuSmSSyzFSSulmxm.o((((((((((((",
"((((((((((((((((((((((((AStSGGSkxFxm.O((((((((((((",
"(((((((((((((((((((((((((((((((((((S((((((((((((((",
"((((((((((((((((((((((((((((((((((((((((((((((((((",
"((((((((((((((((((((((((((((((((((((((((((((((((((",
"((((((((((((((((((((((((((((((((((((((((((((((((((",
"((((((((((((((((((((((((((((((((((((((((((((((((((",
"((((((((((((((((((((((((((((((((((((((((((((((((((",
"((((((((((((((((((((((((((((((((((((((((((((((((((",
"(((((((((((((((((((((((((((((((((((((((((((((((((("
};
