/* XPM */
static char *result[] = {
/* columns rows colors chars-per-pixel */
"50 50 176 2 ",
"   c #030303",
".  c #0B0B0B",
"X  c #080807",
"o  c #120F0C",
"O  c #06151D",
"+  c #141414",
"@  c #181717",
"#  c #1D1C1C",
"$  c #201F1F",
"%  c #2A1F14",
"&  c #262018",
"*  c #201F20",
"=  c #06222C",
"-  c #03273D",
";  c #0B3235",
":  c #242323",
">  c #282727",
",  c #2B2B2A",
"<  c #282728",
"1  c #332E25",
"2  c #302F2F",
"3  c #34322D",
"4  c #343333",
"5  c #3B3B3B",
"6  c #343B39",
"7  c #483828",
"8  c #433C32",
"9  c #433D39",
"0  c #54422C",
"q  c #5B4229",
"w  c #5A4A3A",
"e  c #534836",
"r  c #62462B",
"t  c #6A4B2D",
"y  c #694D32",
"u  c #6C5136",
"i  c #755534",
"p  c #765B39",
"a  c #013A53",
"s  c #1A3C4A",
"d  c #03435A",
"f  c #094856",
"g  c #134653",
"h  c #144D56",
"j  c #2F4857",
"k  c #014264",
"l  c #00476D",
"z  c #195869",
"x  c #034D75",
"c  c #055677",
"v  c #04586B",
"b  c #0B627C",
"n  c #444343",
"m  c #494745",
"M  c #4C4B4B",
"N  c #414948",
"B  c #514D48",
"V  c #575447",
"C  c #535353",
"Z  c #5A5959",
"A  c #575D56",
"S  c #665844",
"D  c #625C51",
"F  c #6E6147",
"G  c #7B664B",
"H  c #68615A",
"J  c #676767",
"K  c #796F64",
"L  c #737372",
"P  c #805B37",
"I  c #8C633B",
"U  c #86613A",
"Y  c #94693E",
"T  c #866747",
"R  c #996C40",
"E  c #936A41",
"W  c #9F7745",
"Q  c #8D7859",
"!  c #9D7852",
"~  c #957754",
"^  c #A37545",
"/  c #B6824E",
"(  c #A1825C",
")  c #B18D56",
"_  c #998768",
"`  c #B3966E",
"'  c #B99164",
"]  c #BA9E7A",
"[  c #C0834B",
"{  c #D39154",
"}  c #C69B56",
"|  c #E89E5A",
" . c #EFA35D",
".. c #F1A55D",
"X. c #F3A95F",
"o. c #DBA86F",
"O. c #C2A77E",
"+. c #EBAE6F",
"@. c #F4AE6A",
"#. c #ECBA67",
"$. c #FABC6C",
"%. c #F5B968",
"&. c #E8B274",
"*. c #F6B474",
"=. c #FDC36D",
"-. c #FFC96E",
";. c #F5C16B",
":. c #054D84",
">. c #005389",
",. c #026C8B",
"<. c #037996",
"1. c #017CA5",
"2. c #0072CC",
"3. c #007DCF",
"4. c #007DD2",
"5. c #0077D0",
"6. c #058696",
"7. c #028AAB",
"8. c #0493AD",
"9. c #0287B6",
"0. c #06A3B7",
"q. c #0285C1",
"w. c #0085D5",
"e. c #008AD6",
"r. c #008CD9",
"t. c #0091D7",
"y. c #0094DC",
"u. c #009ADE",
"i. c #05BBD3",
"p. c #01A4E3",
"a. c #01ACE7",
"s. c #00ACE9",
"d. c #01B4EB",
"f. c #02BEEF",
"g. c #01BDF0",
"h. c #06C6DD",
"j. c #09CEE1",
"k. c #02C5F2",
"l. c #03CBF3",
"z. c #04D3F6",
"x. c #04D9F7",
"c. c #05DCF8",
"v. c #06E0F9",
"b. c #08E6FA",
"n. c #0AEBFC",
"m. c #8B8B8A",
"M. c #918C87",
"N. c #9C9B9B",
"B. c #989897",
"V. c #A59886",
"C. c gray63",
"Z. c #B1ADA7",
"A. c #BBB1A7",
"S. c #B9B9B8",
"D. c #C2AB86",
"F. c #CBBA9A",
"G. c #D5BE92",
"H. c #E5BB86",
"J. c #C1BDB8",
"K. c #C8BBA9",
"L. c #EDC28C",
"P. c #E7C38F",
"I. c #FAC284",
"U. c #FAC788",
"Y. c #ECC996",
"T. c #F4C991",
"R. c #FDD49C",
"E. c #FCD49B",
"W. c #FDDAA4",
"Q. c #FFDBA5",
"!. c #FFE4AE",
"~. c #FDE7B4",
"^. c gray79",
"/. c #D6CCC2",
"(. c #FFFFFF",
"). c None",
/* pixels */
").).).).).).).).).).).).).).).).).).).).).).).).).).).).).).).).).).).).).).).).).).).).).).).).).).",
").).).).).).).).).).).).).).).).).).).).).).).).).).).).).).).).).).).).).).).).).).).).).).).).).).",
").).).).).).).).).).).).).).).).).).).).).).).).).).).).).).).).).).).).).).).).).).).).).).).).).).",
").).).).).).).).).).).).).).).).).).).).).).).).).).).).).).).).).).).).).).).).).).).).).).).).).).",
").).).).).).).).).).).).).).).).).).).. ).).).).  ).).).).).).).).).).).).).).).).).).).).).).).).).",
").).).).).).).).).).).).).).).).).).).+ ).).).. 5 ).).).).).).).).).).).).).).).).).).).).).).).).).",
").).).).).).).).).).).).).).).).).).. C . ).).# C > ).).).).).).).).).).).).).).).).).).).).).).).).",
").).).).).).).).).).).).).).. > ).).. C 5 ).. 4 M Z . ).).X ).).).).).).).).).).).).).).).).).).).).",
").).).).).).).).).).).).).).+ Z @ ).* M C X o 5 m C 3 ).X 5 ).).).).).).).).).).).).).).).).).).).).",
").).).).).).).).).).).).).).# Z C   , m C X > 4 n C B X o C + ).).).).).).).).).).).).).).).).).).).",
").).).).).).).).).).).).).X < M Z o 2 n M o , 4 5 m M X + M 5 ).).. ).).).).).).).).).).).).).).).).",
").).).).).).).).).).).).. . < n C , , 4 N * 4 , 4 n j o > n M . . C . ).).).).).).).).).).).).).).).",
").).).).).).).).).).).. n + > 5 M < , , 5 , , , , 5 2 @ , 4 m   2 A + ).).).).).).).).).).).).).).).",
").).).).).).).).).).).  5 > : < 5 < : , , > , , , 2 , > 2 2 5 * m M # ).).).).).).).).).).).).).).).",
").).).).).).).).).).).. , # * : , * : < : > > > < , < , , , , 4 3 M # ).).).).).).).).).).).).).).).",
").).).).).).).).).).).. # # # * # * * * * : # $ $ $ * * * & $ : , 5 + ).).).).).).).).).).).).).).).",
").).).).).).).).).).).X + . . . O = - a a k x >.,.<.1.7.7.8.8.8.8.6.O ).).).).).).).).).).).).).).).",
").).).).).).).).).).).6.9.9.t.y.u.y.e.2.w.r.u.s.f.l.z.x.x.c.v.b.n.n.; ).).).).).).).).).).).).).).).",
").).).).).).).).).).).j.p.w.w.e.e.e.r.2.4.r.y.s.d.f.k.l.z.c.c.v.b.n.; ).).).).).).).).).).).).).).).",
").).).).).).).).).).).h.p.3.3.3.3.r.y.2.4.w.y.p.d.k.k.l.l.z.c.c.v.b.O ).).).).).).).).).).).).).).).",
").).).).).).).).).).).i.a.3.w.r.y.y.y.2.2.4.w.y.u.p.d.d.f.k.l.z.c.h.).).).).).).).).).).).).).).).).",
").).).).).).).).).).).0.l.t.y.y.t.z V j :.>.x l k d g h g h f z F 1 ).).).).).).).).).).).).).).).).",
").).).).).).).).).).).f v s 6 8 % R Y ^ / E y ! L.E.R.R.Y.T I ^ I y ).).).).).).).).).).).).).).).).",
").).).).).).).).).).).).{ ......Y q q i U I ^ / E G !.] p Y U u S ).).).).).).).).).).).).).).).).).",
").).).).).).).).).).).).r [ ....X.} ^.S.m.H w q p G !.Q u K 5 N.V ).).).).).).).).).).).).).).).).).",
").).).).).).).).).).8 L.I.O.{ ..=.%.J.(.(.(.Z < N.Y.Q.L.J.(.^.Z.8 ).).).).).).).).).).).).).).).).).",
").).).).).).).).).).e T.T.H.H...-.-.#.O.K./.A.V.] E.Q.R.V.S.Z.D.).).).).).).).).).).).).).).).).).).",
").).).).).).).).).).).H.W.` E...-.-.-.=.@.@.@.*.H.` _ Q.W.R.W.F.).).).).).).).).).).).).).).).).).).",
").).).).).).).).).).).S R.R.Q  .-.-.-.-.=.$.*.! 1 4 5 3 G.!.~.V.).).).).).).).).).).).).).).).).).).",
").).).).).).).).).).).).S _ ).t %.-.-.;.) 0 # , 4 5 5 Z 5 n D B ).).).).).).).).).).).).).).).).).).",
").).).).).).).).).).).).).).).).i ( 0 + + # : , 4 4 5 M C Z C o ).).).. ).).).).).).).).).).).).).).",
").).).).).).).).).).).).).).).).).).+ 2 # + # : , 2 4 m M n + ).).).4 . ).).).).).).).).).).).).).).",
").).).).).).).).).).).).).).).).).).).).+ # @ # : , 4 4 # ).).).).M L ).).).).).).).).).).).).).).).",
").).).).).).).).).).).).).).).).).).).).)., @ . @ @ @ # ).).).# J C.: ).).).).).).).).).).).).).).).",
").).).).).).).).).).).).).).).).).).).).2 5 @ 5 * , 5 @ ).)., L N.J ).).).).).).).).).).).).).).).).",
").).).).).).).).).).).).).).).).).).).).N 2 * @ * + 4 < ).).C C.B.> ).).).).).).).).).).).).).).).).",
").).).).).).).).).).).).).).).).).).).: M $ > , @ : # 4 4 T M.m.C ).).).).).).).).).).).).).).).).).",
").).).).).).).).).).).).).).).).).).)., 9 1 : 1 2 , 5 , p ' ( ).).).).).).).).).).).).).).).).).).).",
").).).).).).).).).).).).).).).).).).).&.U.U.A c ,.C A b ! ( o ).).).).).).).).).).).).).).).).).).).",
").).).).).).).).).).).).).).).).).).).&.;.+.S a a n N d w & ).).).).).).).).).).).).).).).).).).).).",
").).).).).).).).).).).).).).).).).).).7 T 7         X + ).).).).).).).).).).).).).).).).).).).).).).",
").).).).).).).).).).).).).).).).).).).).).).X X 5 X ).).).).).).).).).).).).).).).).).).).).).).).).",
").).).).).).).).).).).).).).).).).).).).).).. + + . + ).).).).).).).).).).).).).).).).).).).).).).).",
").).).).).).).).).).).).).).).).).).).).).X   . 4 4 4 n ).).).).).).).).).).).).).).).).).).).).).).",
").).).).).).).).).).).).).).).).).).).).).).).).).).).).).).).).).).).).).).).).).).).).).).).).).).",
").).).).).).).).).).).).).).).).).).).).).).).).).).).).).).).).).).).).).).).).).).).).).).).).).).",
").).).).).).).).).).).).).).).).).).).).).).).).).).).).).).).).).).).).).).).).).).).).).).).).).).",
").).).).).).).).).).).).).).).).).).).).).).).).).).).).).).).).).).).).).).).).).).).).).).).).).).",
").).).).).).).).).).).).).).).).).).).).).).).).).).).).).).).).).).).).).).).).).).).).).).).).).).",
").).).).).).).).).).).).).).).).).).).).).).).).).).).).).).).).).).).).).).).).).).).).).).).).).)."
};
