/* XPM */
static char *bbaf610e8aeb4cbb8d1ecbb9c092d38dKfIc9gB8kmyg1Btw[] = {
/* columns rows colors chars-per-pixel */
"50 50 143 2 ",
"   c #34271E",
".  c #36281E",
"X  c #3A2B1F",
"o  c #281634",
"O  c #2E1C31",
"+  c #3C2D20",
"@  c #3F3022",
"#  c #3E2B3A",
"$  c #402F21",
"%  c #443322",
"&  c #493623",
"*  c #4D3A25",
"=  c #4A3A28",
"-  c #533D26",
";  c #533E28",
":  c #47333D",
">  c #513C3C",
",  c #574027",
"<  c #594127",
"1  c #56412A",
"2  c #5C4429",
"3  c #594730",
"4  c #5D4A32",
"5  c #61472A",
"6  c #64492B",
"7  c #694E2E",
"8  c #644D32",
"9  c #694E30",
"0  c #655136",
"q  c #6C5233",
"w  c #6B5639",
"e  c #6E593B",
"r  c #715635",
"t  c #745936",
"y  c #745B3A",
"u  c #795E3B",
"i  c #7C613E",
"p  c #4C3645",
"a  c #4F3847",
"s  c #513A46",
"d  c #553D48",
"f  c #5C4547",
"g  c #5B4349",
"h  c #664D4B",
"j  c #694F4C",
"k  c #6D534D",
"l  c #71574E",
"z  c #73594E",
"x  c #7C6441",
"c  c #81653F",
"v  c #826644",
"b  c #856A45",
"n  c #896C47",
"m  c #876D4A",
"M  c #8A6E49",
"N  c #8D724A",
"B  c #92754C",
"V  c #94794D",
"C  c #997C4E",
"Z  c #947651",
"A  c #977A51",
"S  c #9A7D53",
"D  c #9C7E58",
"F  c #9E8153",
"G  c #9F815A",
"H  c #A28555",
"J  c #A68957",
"K  c #A98A57",
"L  c #A4855B",
"P  c #A7885B",
"I  c #AB8D5B",
"U  c #AF905C",
"Y  c #AF905E",
"T  c #AF905C",
"R  c #B0915D",
"E  c #B1925C",
"W  c #B1935C",
"Q  c #B0925D",
"!  c #B1935D",
"~  c #B2925C",
"^  c #B2935C",
"/  c #B2925D",
"(  c #B2935D",
")  c #B2935E",
"_  c #B3935E",
"`  c #B2945D",
"'  c #B2945E",
"]  c #B3945E",
"[  c #B3945F",
"{  c #B4945F",
"}  c #B2935D",
"|  c #A68860",
" . c #AF8F63",
".. c #AA8B62",
"X. c #AF9064",
"o. c #AF9061",
"O. c #B39460",
"+. c #B39462",
"@. c #B49560",
"#. c #B59560",
"$. c #B59661",
"%. c #B69661",
"&. c #B49562",
"*. c #B59662",
"=. c #B69762",
"-. c #B69763",
";. c #B19264",
":. c #B49464",
">. c #B49564",
",. c #B59564",
"<. c #B69764",
"1. c #B79764",
"2. c #B49566",
"3. c #B69767",
"4. c #B49562",
"5. c #B79863",
"6. c #B79865",
"7. c #B79967",
"8. c #B79863",
"9. c #B89965",
"0. c #B99A66",
"q. c #B3946A",
"w. c #B5966A",
"e. c #B4956A",
"r. c #B89968",
"t. c #B89869",
"y. c #BA9A6A",
"u. c #BC9C6A",
"i. c #BB9B6F",
"p. c #BE9E6D",
"a. c #BD9D6E",
"s. c #BC9C6A",
"d. c #BA9B70",
"f. c #BD9D72",
"g. c #BFA06E",
"h. c #BFA074",
"j. c #C0A06E",
"k. c #C4A373",
"l. c #C2A274",
"z. c #C4A474",
"x. c #C5A579",
"c. c #CBAB7D",
"v. c #C9A97B",
/* pixels */
"o p p p a p s s s s d d d d p d g g g g # O # p s f h : # f h h h h k k k k k k k l k z z z z z z 3 ",
"% ) E ) ) ) ) ) ) ) ) ) ^ ^ S ) E E ) E 0 F ' ' W W ' E F y x F E ' ) E T T W ' ' W ) ) Y o.Y ` N + ",
"+ I O.) E ) ) ) O.) O.^ ^ ^ P H ] E E ) y T ) ) W ' W ' ' W I B x M H E ) W ' W T I J H F B N y +   ",
"+ M &.) ) E ) ) ^ ^ ^ ^ ^ / I 9 J ) E E v ) ) ) ' W ' W W ' W W ] i < 4 e x b N m v x y 0 1 % X     ",
"@ 8 t.' E ^ ^ ^ ^ O.^ ^ ^ 1.M $ & H Y T w J I T &.>.6.0.6.>.;.X.D 7 6 0 / ) ^ ^ T ` W ] W ] E I F N ",
"I 2 Z u.^ ^ ^ ^ ^ ^ ^ O.y.M ;   . & F V * 6 6 5 6 6 6 6 6 6 6 6 6 6 - b / ) O.^ W W ] W ] W ] E o.X.",
"O.B 6 d.&.) O.) ^ O.O.i.v 5 + $ & & & 1 @ & - 1 2 2 5 5 6 6 6 6 6 5 % C / ) ^ ^ W ' W ] E ] E ] ` Y ",
"' T q u k.] ) ) ^ 1.w.u 6 $ & t P G G Z B M v x y r q 9 6 2 < - - X + H E ) ^ ^ ' W ' W ] E ] E ` ` ",
"' ' N 5 Z u.) ' j.q.q 6 * & 9 Y ^ O.^ O.&.&.&.1.0.6.5.&.>.;.X.P 7 & & I ) E ) E ^ ^ ^ E ^ ^ ^ E ` ' ",
"' ' I 7 7 i.&.k.P 9 6 < $ 6 L / ^ ^ ^ O.^ ^ ^ ^ ) ) E ] ^ ^ ) :.9 & - / ^ ^ ) ) ^ ^ ^ ) ^ ^ ^ ) ' ' ",
"W ' ' b 5 i c.B 6 6 5 $ 5 D ^ / ^ O.^ ^ ^ ^ ^ ^ ) E ) E ) ) ) O.r & 5 O.^ ^ ^ ) ^ ^ ) ) ^ ^ ) ) W ' ",
"' W ' ) 7 6 u 6 6 5 & 2 B O.^ O.) ) ^ O.^ ^ ^ ^ ) ) E ' ) ) ) :.9 & 6 O.^ ^ O.) ) O.) ) ) O.) ) ' ' ",
"' ' ] E b 5 6 6 6 - ; v ^ ^ ^ ^ ) ) E ^ ) ) E ^ ) ) ) O.E ^ ^ &.9 * 6 O.^ ^ ^ E ) ) ) E ^ ^ ^ ) W ' ",
"] E E ] I < 6 6 ; * c ^ O.^ ^ / ) ) ^ ^ ) ) ^ ^ ) ) ) ^ ) E O.O.9 - 6 ..^ ^ ^ ) ) ) ^ ^ ^ ^ ^ O.' W ",
"] E ' E W 0 5 2 * 9 U ^ ^ O.^ O.) O.^ ^ ) ) ^ ^ E ^ ^ ^ ^ ^ ) o.7 * 6 P ^ ^ ) ) O.^ ^ ^ ^ ^ ) ) E ' ",
"] ' E ] W N @ X 2 u I ^ ^ ^ ^ ^ ) ^ ^ ^ O.^ ^ ^ ^ ^ O.^ ^ ^ ^ ..6 * 6 D ) O.) ) ) ^ ^ ^ E ) ) ) ' E ",
"] ' W ' I z   + . - 7 V U ^ E ) ) ^ ^ ^ E ^ ^ ^ ^ ^ ) E ) ^ ) S 5 % 5 n s.^ ^ ^ ^ ^ ^ O.^ ^ ^ ) E ] ",
"' W ' W C +   + .   X * q N K E U K H C U E ^ ^ O.^ ) ) E H u 2 $ X 5 r k.^ O.^ O.^ ^ ^ ^ ^ ^ O.] E ",
") E E I & X $ + X . .   X % 5 r 8 < & X q K ) ) ) ^ ^ H u 6 &   X . - 7 L %.^ ^ ) ) ^ O.^ ^ ) ) E ] ",
"E ' T 3 w N 6 6 5 5 5 < $ .   $ - u c -   - B ) ) S v 5 & X & 2 7 - & 6 t i.^ ^ E ) ) ) E ) ) ) ] E ",
") E e v ^ O.:.S v 6 6 6 6 $ X q I O.) H 8 X X 6 r - % $ - 6 7 n L D ; - 6 Z y.^ ^ ^ O.) ) ) O.) E ] ",
"E b i ' ^ ^ ^ ^ 5.O.y 6 5 6 $ - P ^ ) ) P 5         * 6 7 n u.{ ) ) B X ; 7 e.1.^ ^ ^ ^ ) ) ^ ^ ] E ",
"x i T ' E ^ ) ) ^ ^ ) b 7 6 5 $ 9 I / I V 9 $ X   % 6 n ;.&.] ^ ^ ^ ) 8 X - 7 q.1.^ ^ ^ ) ^ ^ ^ ' ] ",
"e E ' ' ) ) ) ) O.^ ^ ^ t 6 6 - + 9 t 6 * * - 5 2 % 6 I ] ^ ^ ^ ^ ^ ^ H -   % 8 e.y.^ O.E ^ ^ ^ ' C ",
"Y Y ' W ' W ] E ) ) ) E D 6 6 6 - $ $ * 5 6 7 u 7 * 6 P ^ ^ ^ ^ ^ ^ ^ ^ H ;   + 2 G 0.W E ) ) ' M & ",
"Y ` W ' W ' E ] O.^ ) ) ^ r 6 6 5 + - 7 B q.v.x.D - 2 A ^ ^ ^ ^ E ) ^ ^ ) I t &   + 0 F T ) T y % B ",
"Y ` ' W ] E ] E ^ ^ ^ E %.v 6 6 5 $ 6 ..k.1.) ) &.6 - v O.^ O.^ ) ) O.^ ) ) ) V 8 + . X 0 V 0 @ F ' ",
"Y ` W ' E ] E ] ^ ^ ^ ) %.n 6 6 - * u y.^ ^ ) ) %.u - r O.O.^ ^ ) ) ) ^ ) ) ) ) T S i * X . @ B Y W ",
"E E ] E ] E ] E ^ O.) ) 1.i 6 5 X 2 P ) ^ ^ ^ ) ~ B ; 5 P ^ ^ O.^ ^ ^ ^ ^ E ) ) ) ) &.u - X C ) W ' ",
"I ] E ] E ] E ] ^ ^ ) ) y.r 6 * + q O.) / O.O./ ^ D 5 ; n :.^ ^ E ) ^ ^ ^ ) ) ) ) E 5.y - e ) ) ' W ",
"T ) ] E ] E ] E ^ O.^ ^ ;.6 5 X * v O.^ ^ ^ ^ ^ ^ / 6 & 6 o.^ O.) ) O.^ ^ ^ O.) ^ ^ %.y - N E ' W ' ",
"I ) E ] E ] E ] ^ ^ O.y.B 6 -   $ u O.^ ^ / O.^ ^ O.r & 5 A ) / ) ) ) ^ ^ ^ ^ ^ ^ ^ %.t - V ' E ' W ",
"I ] ] ) ) ) E ^ ^ ^ &.f.9 5 +   X 6 K ^ ^ ^ ^ ^ O.) u & * r  ./ ^ ^ ^ ^ ~ _ ~ / / ^ 1.q - S { ^ E ] ",
"I ] ] E ) ) ^ ^ ^ ^ k.n 6 &       & V ^ ^ ^ ^ O.) / 9 $ X ; u 1.^ ^ ^ ^ _ _ _ ~ ^ ^ 1.7 * S ^ ^ ] E ",
"I ] E ] O.) ^ ^ O.u. .6 2 .     . X 7 I ^ ^ O.^ ^ I 6 $ * & 5 q S 1.1.#._ _ ~ ~ { { o.6 * H ^ ^ E ] ",
"I E ] E ^ ^ ^ ^ 1.x.q 5 - 2 - $ . . & u ^ ^ ^ ^ ^ S 5 % Z Z 5 - 2 6 u v n n N N M M t 6 $ x ^ ^ ' E ",
"I ] E ' E ] ^ &.v.B 6 < ; x u 9 ; $ X - S ^ ^ ^ ^ N ; ;  .{ w.v - % - ; 5 ; < < 2 2 < ,   & T ) W ' ",
"I ) ' E ] E ] k.| 7 2 $ v v.k.w.S q ; $ i ^ ^ ^ ^ c - t %.^ / ;.8 $ - - < ; - - * & % $ X   x ) ' ' ",
"I ) E ) E ^ u.f.9 6 + $ ..&.^ ^ 1.h.u - 2 O.E ^ ^ t - A ^ / H 3 * 5 5 9 n D D B r 6 6 6 6 ; + x ' ' ",
"I ) ) E ] 5.c.i 6 *   ; O.^ ^ ^ ^ y.x.7 & S ) E ^ 7 * P O.n * ; 7 n ..x.k.u.u.u.u.P N t 7 6 2 & v ' ",
"P ) ) ) ' v.b 2 % +   8 :.) ) ) O.^ c.M % v E ) H 5 2 n - - r L k.p.&.) ) ) O.^ ^ ^ E ^ E I H C x v ",
"I ) ) T g.N 6 & +   + u &.) ) E ^ ^ k.P * 5 U E V - ; & 2 v v.k.O.^ ^ O.) ) ) ^ ^ ^ ) ) ^ ^ ] ^ ^ I ",
"H F I O.B 2 @ .     + y ] ) E ) ^ ^ &.h.; % D P t * + 8 S v.s.) ^ ^ ^ ^ E ^ ^ ^ ^ ^ O.) ^ ^ ^ ^ ^ ^ ",
"I I y 1 % +         + q ) E ) E ^ ^ ^ k.r + 6 7 6 $ 2 P z.&.^ ^ ) O.^ ^ ^ ^ ^ ^ ^ ^ ) ) ^ ^ ^ ^ ^ E ",
"P W b . .     + 0 V B 6 E ^ ^ ^ ) ) ) s.n * - 6 - - L k.] ) ) ^ ) ) E ^ ) ) ) ^ O.^ ^ ^ O.^ O.^ ) ) ",
"P ' V . . X 0 F ' W ' b H ^ ^ ^ ) ) E ^ D ; X + $ | p.^ ) ) ) E ) ) ^ ^ ) O.) E ) ^ ^ ^ ^ ^ ^ ^ ) ) ",
"J Y F . * S E ' W ' E P S ) ^ ^ O.) ^ ^ H 5     n y.^ ^ ^ O.^ ^ ) ) ^ ^ ^ ^ ^ ^ ) ) E ^ ) ) O.^ O.) ",
"J T 0 4 I E ' E ' E ) ) F ) ^ ^ ^ ^ ^ ^ U 6 + w >.^ ^ ^ ^ ^ ^ ^ ) O.^ ^ ^ ^ ^ E ) ) ) ) ) O.^ ^ ^ ^ ",
"L x 4 T Y ' ' ' E ' E ' K J E ' E ] E ] E t * I ^ ^ ^ ^ ^ O.) E ) ) ^ ^ ^ ) ) ) ^ ^ ^ ^ O.) E ^ ^ ^ ",
"x = J o.' ' ' W ' W ' E W C ' ' ] E ] E ^ V 4 E ^ E ^ ^ ) ) ) ) ^ E ^ ^ ^ O.) ) ^ E ^ ^ ) ) ) ) ^ ^ "
};
